<?xml version="1.0" encoding="UTF-8" standalone="no"?>
<svg width="19px" height="18px" viewBox="0 0 19 18" version="1.1" xmlns="http://www.w3.org/2000/svg" xmlns:xlink="http://www.w3.org/1999/xlink" xmlns:sketch="http://www.bohemiancoding.com/sketch/ns">
    <!-- Generator: Sketch 3.3.3 (12072) - http://www.bohemiancoding.com/sketch -->
    <title>Shape</title>
    <desc>Created with Sketch.</desc>
    <defs></defs>
    <g id="Page-1" stroke="none" stroke-width="1" fill="none" fill-rule="evenodd" sketch:type="MSPage">
        <g id="ic_brush_black_18px" sketch:type="MSLayerGroup" transform="translate(10.000000, 9.000000) scale(1, -1) translate(-10.000000, -9.000000) translate(-2.000000, -3.000000)" fill="#000000">
            <path d="M7,14 C5.34,14 4,15.34 4,17 C4,18.31 2.84,19 2,19 C2.92,20.22 4.49,21 6,21 C8.21,21 10,19.21 10,17 C10,15.34 8.66,14 7,14 L7,14 Z M20.71,4.63 L19.37,3.29 C18.98,2.9 18.35,2.9 17.96,3.29 L9,12.25 L11.75,15 L20.71,6.04 C21.1,5.65 21.1,5.02 20.71,4.63 L20.71,4.63 Z" id="Shape" sketch:type="MSShapeGroup"></path>
        </g>
    </g>
</svg>